<svg width="46" height="48" viewBox="0 0 46 48" fill="none" xmlns="http://www.w3.org/2000/svg">
<path d="M23 0C10.3002 0 0 10.746 0 24C0 34.604 6.5895 43.6 15.7301 46.774C16.8782 46.996 17.25 46.252 17.25 45.62V41.152C10.8522 42.604 9.52008 38.32 9.52008 38.32C8.47358 35.546 6.96517 34.808 6.96517 34.808C4.87792 33.318 7.12425 33.35 7.12425 33.35C9.43383 33.518 10.649 35.824 10.649 35.824C12.6998 39.492 16.0291 38.432 17.342 37.818C17.5471 36.268 18.1432 35.208 18.8025 34.61C13.6946 34 8.32408 31.942 8.32408 22.748C8.32408 20.126 9.223 17.986 10.6931 16.306C10.4554 15.7 9.66767 13.258 10.9173 9.954C10.9173 9.954 12.8493 9.31 17.2442 12.414C19.0785 11.882 21.045 11.616 23 11.606C24.955 11.616 26.9234 11.882 28.7615 12.414C33.1526 9.31 35.0807 9.954 35.0807 9.954C36.3323 13.26 35.5446 15.702 35.3069 16.306C36.7827 17.986 37.674 20.128 37.674 22.748C37.674 31.966 32.2939 33.996 27.1726 34.59C27.9967 35.334 28.75 36.794 28.75 39.034V45.62C28.75 46.258 29.118 47.008 30.2852 46.772C39.4182 43.594 46 34.6 46 24C46 10.746 35.7017 0 23 0Z" fill="#F2EB67"/>
</svg>
